<svg xmlns="http://www.w3.org/2000/svg" viewBox="0 0 377.45 205.1"><defs><style>.cls-1{fill:#805ad5;}.cls-2{fill:#514289;}.cls-3{fill:#684eaf;}</style></defs><g id="Capa_2" data-name="Capa 2"><g id="Capa_1-2" data-name="Capa 1"><path class="cls-1" d="M194,127.21V80.41h15.81a18.23,18.23,0,0,1,9,2,12.59,12.59,0,0,1,5.2,5.33,17.58,17.58,0,0,1,0,15,12.65,12.65,0,0,1-5.18,5.38,17.89,17.89,0,0,1-8.95,2H198.59v-5h11.15a12.19,12.19,0,0,0,6.06-1.3,7.84,7.84,0,0,0,3.32-3.53,12.71,12.71,0,0,0,0-10.07,7.61,7.61,0,0,0-3.35-3.48,12.63,12.63,0,0,0-6.12-1.27h-10v41.77Z"/><path class="cls-1" d="M239.54,106.1v21.11h-5.4V80.41h5.4V97.6H240a9.92,9.92,0,0,1,3.72-4.33,11.91,11.91,0,0,1,6.61-1.62,13.23,13.23,0,0,1,6.28,1.43,9.88,9.88,0,0,1,4.2,4.37,16.45,16.45,0,0,1,1.49,7.46v22.3H256.9V105.27a9.11,9.11,0,0,0-2.16-6.48,7.8,7.8,0,0,0-6-2.29A9.82,9.82,0,0,0,244,97.62a8,8,0,0,0-3.29,3.27A10.51,10.51,0,0,0,239.54,106.1Z"/><path class="cls-1" d="M286.42,127.94a14.81,14.81,0,0,1-13.9-8.59,21.21,21.21,0,0,1-2-9.51,21.48,21.48,0,0,1,2-9.57,15.38,15.38,0,0,1,27.8,0,21.48,21.48,0,0,1,2,9.57,21.21,21.21,0,0,1-2,9.51,14.81,14.81,0,0,1-13.9,8.59Zm0-4.85a9.21,9.21,0,0,0,5.94-1.85,10.78,10.78,0,0,0,3.45-4.86,18.56,18.56,0,0,0,1.12-6.54,18.79,18.79,0,0,0-1.12-6.56,11,11,0,0,0-3.45-4.91,10.37,10.37,0,0,0-11.88,0,11.14,11.14,0,0,0-3.45,4.91,18.79,18.79,0,0,0-1.12,6.56,18.56,18.56,0,0,0,1.12,6.54,10.93,10.93,0,0,0,3.45,4.86A9.21,9.21,0,0,0,286.42,123.09Z"/><path class="cls-1" d="M315.94,106.1v21.11h-5.39V92.11h5.21V97.6h.45A10.16,10.16,0,0,1,320,93.29a11.72,11.72,0,0,1,6.49-1.64,12.84,12.84,0,0,1,6.24,1.46,9.93,9.93,0,0,1,4.16,4.38,16.39,16.39,0,0,1,1.48,7.42v22.3h-5.39V105.27a9.14,9.14,0,0,0-2.15-6.45,7.61,7.61,0,0,0-5.89-2.32,9.34,9.34,0,0,0-4.61,1.12,7.9,7.9,0,0,0-3.18,3.27A10.73,10.73,0,0,0,315.94,106.1Z"/><path class="cls-1" d="M362.92,127.94a16.38,16.38,0,0,1-8.74-2.25,14.81,14.81,0,0,1-5.65-6.31,21.41,21.41,0,0,1-2-9.45,21.87,21.87,0,0,1,2-9.51A15.54,15.54,0,0,1,354.06,94a14.91,14.91,0,0,1,8.31-2.32,16.58,16.58,0,0,1,5.41.92,13.34,13.34,0,0,1,4.87,3,14.33,14.33,0,0,1,3.5,5.4,23.19,23.19,0,0,1,1.3,8.27v2.29H350.4v-4.66H372a11.64,11.64,0,0,0-1.17-5.3,9.07,9.07,0,0,0-3.34-3.68,9.38,9.38,0,0,0-5.08-1.35,9.65,9.65,0,0,0-5.56,1.59,10.45,10.45,0,0,0-3.6,4.12,12,12,0,0,0-1.26,5.44v3.11a14.85,14.85,0,0,0,1.38,6.72,9.8,9.8,0,0,0,3.85,4.19,11.29,11.29,0,0,0,5.74,1.42,11.69,11.69,0,0,0,3.85-.6,7.93,7.93,0,0,0,3-1.83,8.15,8.15,0,0,0,1.94-3l5.21,1.46a11.48,11.48,0,0,1-2.76,4.65,13.29,13.29,0,0,1-4.8,3.11A17.65,17.65,0,0,1,362.92,127.94Z"/><path class="cls-1" d="M217.81,171.08a5.76,5.76,0,0,0-2.36-4.29,9.23,9.23,0,0,0-5.64-1.54,10.93,10.93,0,0,0-4.09.68,5.81,5.81,0,0,0-2.55,1.86,4.45,4.45,0,0,0-.88,2.7,3.78,3.78,0,0,0,.54,2.19,5.26,5.26,0,0,0,1.61,1.61,11.72,11.72,0,0,0,2.38,1.17,25,25,0,0,0,2.88.83l4.2,1a29.16,29.16,0,0,1,5.62,1.82,17.28,17.28,0,0,1,4.43,2.81,12.08,12.08,0,0,1,2.92,3.93,12.68,12.68,0,0,1,1.06,5.19,13,13,0,0,1-2.18,7.44,13.9,13.9,0,0,1-6.22,4.86,24.87,24.87,0,0,1-9.76,1.73,25.59,25.59,0,0,1-9.86-1.74,14.32,14.32,0,0,1-6.54-5.15,15.23,15.23,0,0,1-2.45-8.47h9.57a7,7,0,0,0,1.36,3.92,7.27,7.27,0,0,0,3.22,2.36,12.68,12.68,0,0,0,4.58.78,11.93,11.93,0,0,0,4.38-.73,6.65,6.65,0,0,0,2.89-2,4.74,4.74,0,0,0,1-3,3.9,3.9,0,0,0-.93-2.65,7.2,7.2,0,0,0-2.7-1.83,27.86,27.86,0,0,0-4.33-1.37l-5.09-1.28a21.4,21.4,0,0,1-9.35-4.5,10.44,10.44,0,0,1-3.4-8.25,12.22,12.22,0,0,1,2.27-7.43,15.16,15.16,0,0,1,6.32-4.95,22.32,22.32,0,0,1,9.14-1.79,21.71,21.71,0,0,1,9.11,1.79,14.42,14.42,0,0,1,6.06,4.95,13.14,13.14,0,0,1,2.24,7.36Z"/><path class="cls-1" d="M253,169.32v7.31H231.91v-7.31Zm-16.34-8.41h9.74v32.72a4.28,4.28,0,0,0,.41,2.09,2.23,2.23,0,0,0,1.15,1,4.61,4.61,0,0,0,1.73.3,7.14,7.14,0,0,0,1.37-.13l1.05-.19,1.53,7.24c-.49.16-1.17.33-2.06.54a17.91,17.91,0,0,1-3.22.38,14.7,14.7,0,0,1-6.16-.94,8.64,8.64,0,0,1-4.1-3.34,10.26,10.26,0,0,1-1.44-5.71Z"/><path class="cls-1" d="M274.86,205.1a17.93,17.93,0,0,1-9.2-2.27,15.37,15.37,0,0,1-6-6.35,22.52,22.52,0,0,1,0-19,15.31,15.31,0,0,1,6-6.35,19.7,19.7,0,0,1,18.4,0,15.31,15.31,0,0,1,6,6.35,22.52,22.52,0,0,1,0,19,15.37,15.37,0,0,1-6,6.35A17.93,17.93,0,0,1,274.86,205.1Zm.05-7.54a6,6,0,0,0,4-1.38,8.54,8.54,0,0,0,2.46-3.78,18.37,18.37,0,0,0,0-10.92,8.66,8.66,0,0,0-2.46-3.8,6,6,0,0,0-4-1.39,6.18,6.18,0,0,0-4.11,1.39,8.54,8.54,0,0,0-2.49,3.8,18.37,18.37,0,0,0,0,10.92,8.42,8.42,0,0,0,2.49,3.78A6.23,6.23,0,0,0,274.91,197.56Z"/><path class="cls-1" d="M298.48,204.42v-35.1h9.44v6.12h.37a9.12,9.12,0,0,1,3.22-4.94,8.5,8.5,0,0,1,5.21-1.68,14.89,14.89,0,0,1,1.57.09,10.47,10.47,0,0,1,1.49.25v8.64a12.76,12.76,0,0,0-1.9-.37,18.23,18.23,0,0,0-2.21-.16,7.78,7.78,0,0,0-3.83.93,6.82,6.82,0,0,0-2.65,2.57,7.27,7.27,0,0,0-1,3.79v19.86Z"/><path class="cls-1" d="M339.13,205.1a18.61,18.61,0,0,1-9.31-2.2,14.91,14.91,0,0,1-6-6.26,22.81,22.81,0,0,1,0-19.12,15.53,15.53,0,0,1,5.93-6.37,17.24,17.24,0,0,1,9-2.29,18.53,18.53,0,0,1,6.48,1.11,14.64,14.64,0,0,1,5.26,3.33,15,15,0,0,1,3.5,5.56,22.17,22.17,0,0,1,1.26,7.83v2.67H325.61v-6h20.47a7.47,7.47,0,0,0-.92-3.73,6.61,6.61,0,0,0-2.52-2.54,7.33,7.33,0,0,0-3.74-.93,7.45,7.45,0,0,0-3.91,1,7.19,7.19,0,0,0-2.67,2.72,7.76,7.76,0,0,0-1,3.78v5.73a9.7,9.7,0,0,0,1,4.5,7,7,0,0,0,2.76,2.93,8.32,8.32,0,0,0,4.22,1,9.34,9.34,0,0,0,3-.46,6.23,6.23,0,0,0,2.31-1.37,5.93,5.93,0,0,0,1.46-2.24l9,.59a12.27,12.27,0,0,1-2.79,5.66,14.19,14.19,0,0,1-5.44,3.75A20.48,20.48,0,0,1,339.13,205.1Z"/><path class="cls-2" d="M75.37,7.54l-66.64,30C1.63,40.71-1.84,48.38,1,54.65L54,172.63c2.82,6.27,10.86,8.77,18,5.58l66.64-30c7.1-3.19,10.57-10.87,7.75-17.14l-53.06-118C90.51,6.85,82.47,4.35,75.37,7.54Z"/><path class="cls-3" d="M112.92.23,41,13.23A13.93,13.93,0,0,0,29.59,29.29L55.05,170.17a13.94,13.94,0,0,0,16.32,11.06l71.9-13a14,14,0,0,0,11.42-16.07L129.23,11.29A13.93,13.93,0,0,0,112.92.23Z"/><path class="cls-1" d="M146.54,13.74l-78.11,1A15.21,15.21,0,0,0,53.57,30.33l2.1,159.61A15.21,15.21,0,0,0,70.93,205.1l78.12-1a15.21,15.21,0,0,0,14.86-15.56l-2.1-159.6A15.22,15.22,0,0,0,146.54,13.74Zm-36.92,179a8.34,8.34,0,1,1,8.07-8.45A8.26,8.26,0,0,1,109.62,192.72Z"/></g></g></svg>