<?xml version="1.0" encoding="utf-8"?>
<!-- Generator: Adobe Illustrator 25.2.0, SVG Export Plug-In . SVG Version: 6.00 Build 0)  -->
<svg version="1.1" id="Capa_1" xmlns="http://www.w3.org/2000/svg" xmlns:xlink="http://www.w3.org/1999/xlink" x="0px" y="0px"
	 viewBox="0 0 297 196" style="enable-background:new 0 0 297 196;" xml:space="preserve">
<style type="text/css">
	.st0{fill:#6B46C1;}
</style>
<g>
	<g>
		<g>
			<g>
				<path class="st0" d="M146.07,4.38h-25.13c-4.27,0-7.9,3.48-7.9,7.75v58.88c0,4.27,3.55,7.74,7.82,7.74l25.17-0.03
					c4.27,0,7.77-3.47,7.77-7.75l0.04-58.86C153.83,7.84,150.35,4.38,146.07,4.38z M129.87,9.02h7.29c0.64,0,1.16,0.52,1.16,1.16
					s-0.52,1.16-1.16,1.16h-7.29c-0.64,0-1.16-0.52-1.16-1.16C128.71,9.54,129.23,9.02,129.87,9.02z M125.49,9.39
					c0.43-0.43,1.21-0.44,1.64,0c0.22,0.22,0.34,0.52,0.34,0.83c0,0.3-0.13,0.6-0.34,0.82c-0.21,0.22-0.52,0.34-0.82,0.34
					c-0.31,0-0.6-0.13-0.83-0.34c-0.21-0.22-0.34-0.52-0.34-0.82C125.15,9.91,125.28,9.61,125.49,9.39z M133.28,76.45
					c-1.92,0-3.48-1.56-3.48-3.48c0-1.92,1.56-3.48,3.48-3.48s3.48,1.56,3.48,3.48C136.76,74.89,135.2,76.45,133.28,76.45z
					 M150.23,67.13H117.1V15.42h33.12L150.23,67.13L150.23,67.13z"/>
			</g>
		</g>
		<path class="st0" d="M126.15,80.37l-5.68,0.01l7.83,15.61h-11.94l-6.53-18.2h3.75c-1.33-1.34-2.22-3.11-2.42-5.08H21.74v-5.08
			c0-1.4,1.14-2.54,2.54-2.54h86.84v-5.08H24.28c-4.2,0-7.62,3.42-7.62,7.62v7.01L5.25,97.39c-0.18,0.35-0.27,0.74-0.27,1.14v8.92
			c0,5.45,3.82,10.02,8.92,11.18v53.59H12.6c-4.2,0-7.62,3.42-7.62,7.62v7.62c0,1.4,1.14,2.54,2.54,2.54h124.89
			c1.4,0,2.54-1.14,2.54-2.54v-7.62c0-4.2-3.42-7.62-7.62-7.62h-1.31v-53.59c5.1-1.16,8.92-5.73,8.92-11.18v-8.92
			c0-0.4-0.09-0.78-0.27-1.14L126.15,80.37z M113.34,161.81v-45.87c0.44-0.4,0.86-0.84,1.23-1.31c1.59,1.97,3.83,3.41,6.38,3.99
			v53.59H18.98v-53.59c2.56-0.58,4.79-2.02,6.38-3.99c0.38,0.47,0.79,0.9,1.23,1.3v45.87c0,1.4,1.14,2.54,2.54,2.54h81.67
			C112.2,164.35,113.34,163.21,113.34,161.81z M27.9,107.45v-6.38h12.76v6.38C40.32,115.92,28.25,115.91,27.9,107.45z
			 M112.03,107.46c-0.37,8.47-12.44,8.43-12.77-0.03v-6.36h12.76v6.38C112.03,107.45,112.03,107.46,112.03,107.46z M104.43,77.79
			l6.53,18.2H98.78l-3.92-18.2H104.43z M94.19,107.46c-0.37,8.46-12.41,8.44-12.76-0.01c0-0.01,0-0.01,0-0.02v-6.37h12.76v6.38
			C94.19,107.45,94.19,107.46,94.19,107.46z M89.67,77.79l3.92,18.2H81.25l-1.31-18.2H89.67z M65.08,77.79h9.78l1.31,18.2H63.78
			L65.08,77.79z M63.59,101.07h12.76v6.38c0,0.01,0,0.01,0,0.02c-0.37,8.46-12.42,8.44-12.76-0.02V101.07z M61.05,114.63
			c4.44,5.67,13.4,5.66,17.84,0c4.44,5.67,13.4,5.67,17.84,0c2.56,3.29,7.29,5.03,11.53,3.97v40.66H31.67v-40.66
			c4.24,1.06,8.97-0.68,11.53-3.97C47.65,120.3,56.61,120.3,61.05,114.63z M50.27,77.79h9.72l-1.31,18.2H46.35L50.27,77.79z
			 M45.75,101.07h12.76v6.38c-0.35,8.47-12.42,8.46-12.76,0V101.07z M45.07,77.79l-3.92,18.2H28.97l6.53-18.2H45.07z M20.77,77.79
			h9.34l-6.53,18.2H11.64L20.77,77.79z M10.06,107.45v-6.38h12.76v6.38C22.47,115.92,10.41,115.91,10.06,107.45z M127.34,177.29
			c1.4,0,2.54,1.14,2.54,2.54v5.08H10.06v-5.08c0-1.4,1.14-2.54,2.54-2.54H127.34z M129.88,107.45c0,3.52-2.86,6.38-6.38,6.38
			c-3.52,0-6.38-2.86-6.38-6.38c0-0.01,0-0.01,0-0.02v-6.37h12.76V107.45z"/>
	</g>
	<g>
		<path class="st0" d="M160.12,119.78V87.26h12.19c2.5,0,4.6,0.47,6.3,1.4c1.7,0.93,2.99,2.21,3.86,3.83s1.31,3.47,1.31,5.53
			c0,2.09-0.44,3.94-1.32,5.56c-0.88,1.62-2.18,2.89-3.89,3.82c-1.71,0.93-3.83,1.39-6.33,1.39h-8.08v-4.84h7.29
			c1.46,0,2.66-0.25,3.59-0.76c0.93-0.51,1.62-1.21,2.07-2.1c0.45-0.89,0.67-1.91,0.67-3.06c0-1.15-0.22-2.17-0.67-3.05
			c-0.45-0.88-1.14-1.56-2.08-2.06c-0.94-0.49-2.14-0.74-3.61-0.74h-5.4v27.6H160.12z"/>
		<path class="st0" d="M194.38,105.49v14.29h-5.75V87.26h5.62v12.27h0.29c0.57-1.38,1.46-2.46,2.66-3.26c1.2-0.8,2.73-1.2,4.6-1.2
			c1.69,0,3.17,0.35,4.43,1.06c1.26,0.71,2.24,1.75,2.93,3.11s1.04,3.03,1.04,5v15.53h-5.75v-14.64c0-1.64-0.42-2.92-1.26-3.83
			c-0.84-0.92-2.02-1.37-3.53-1.37c-1.02,0-1.92,0.22-2.72,0.66c-0.8,0.44-1.42,1.07-1.87,1.9
			C194.61,103.31,194.38,104.31,194.38,105.49z"/>
		<path class="st0" d="M226.68,120.25c-2.38,0-4.45-0.52-6.19-1.57c-1.75-1.05-3.1-2.51-4.06-4.4c-0.96-1.88-1.44-4.09-1.44-6.6
			c0-2.52,0.48-4.73,1.44-6.62c0.96-1.9,2.31-3.37,4.06-4.41c1.75-1.05,3.81-1.57,6.19-1.57s4.45,0.52,6.19,1.57
			c1.75,1.05,3.1,2.52,4.06,4.41c0.96,1.89,1.44,4.1,1.44,6.62c0,2.52-0.48,4.72-1.44,6.6c-0.96,1.88-2.31,3.35-4.06,4.4
			C231.12,119.73,229.06,120.25,226.68,120.25z M226.71,115.65c1.29,0,2.37-0.36,3.24-1.07s1.52-1.67,1.95-2.88s0.64-2.55,0.64-4.03
			c0-1.49-0.21-2.84-0.64-4.06s-1.08-2.18-1.95-2.9s-1.95-1.08-3.24-1.08c-1.32,0-2.42,0.36-3.29,1.08
			c-0.87,0.72-1.52,1.69-1.95,2.9s-0.64,2.56-0.64,4.06c0,1.48,0.21,2.83,0.64,4.03s1.08,2.17,1.95,2.88
			C224.29,115.29,225.38,115.65,226.71,115.65z"/>
		<path class="st0" d="M248.97,105.49v14.29h-5.75V95.39h5.49v4.14H249c0.56-1.37,1.46-2.45,2.69-3.25c1.23-0.8,2.76-1.21,4.58-1.21
			c1.68,0,3.15,0.36,4.41,1.08s2.23,1.76,2.92,3.13c0.69,1.37,1.03,3.02,1.02,4.97v15.53h-5.75v-14.64c0-1.63-0.42-2.91-1.26-3.83
			s-2-1.38-3.49-1.38c-1.01,0-1.9,0.22-2.67,0.66c-0.78,0.44-1.39,1.07-1.83,1.9C249.19,103.31,248.97,104.31,248.97,105.49z"/>
		<path class="st0" d="M281.28,120.25c-2.45,0-4.55-0.51-6.33-1.53s-3.14-2.47-4.09-4.35c-0.95-1.88-1.43-4.09-1.43-6.65
			c0-2.51,0.48-4.71,1.44-6.61c0.96-1.9,2.3-3.38,4.02-4.45s3.75-1.6,6.08-1.6c1.5,0,2.92,0.24,4.26,0.72s2.52,1.22,3.56,2.23
			s1.84,2.28,2.44,3.83s0.89,3.4,0.89,5.53v1.76h-19.99v-3.88h14.48c-0.01-1.1-0.25-2.08-0.71-2.95c-0.47-0.86-1.11-1.54-1.95-2.04
			c-0.83-0.5-1.8-0.75-2.9-0.75c-1.17,0-2.21,0.28-3.1,0.85c-0.89,0.57-1.58,1.31-2.07,2.22c-0.49,0.92-0.74,1.92-0.75,3.01v3.38
			c0,1.42,0.26,2.63,0.78,3.64s1.24,1.78,2.17,2.32c0.93,0.53,2.02,0.8,3.27,0.8c0.84,0,1.59-0.12,2.27-0.36
			c0.68-0.24,1.26-0.59,1.76-1.06c0.5-0.47,0.87-1.04,1.13-1.73l5.37,0.6c-0.34,1.42-0.98,2.65-1.93,3.71
			c-0.95,1.05-2.16,1.87-3.63,2.45C284.86,119.96,283.17,120.25,281.28,120.25z"/>
		<path class="st0" d="M178.88,149.04c-0.18-1.81-0.98-3.25-2.4-4.32c-1.42-1.07-3.2-1.6-5.35-1.6c-1.51,0-2.84,0.26-3.99,0.78
			c-1.15,0.52-2.05,1.24-2.7,2.15c-0.65,0.92-0.98,1.96-0.98,3.12c0,0.86,0.19,1.61,0.56,2.25s0.87,1.2,1.5,1.66s1.33,0.85,2.1,1.18
			s1.54,0.6,2.33,0.83l3.43,0.98c1.04,0.29,2.08,0.65,3.11,1.1c1.04,0.44,1.99,1,2.85,1.67c0.86,0.67,1.56,1.49,2.08,2.46
			c0.52,0.97,0.79,2.13,0.79,3.49c0,1.74-0.45,3.3-1.35,4.68c-0.9,1.39-2.19,2.49-3.88,3.29c-1.68,0.81-3.7,1.21-6.05,1.21
			c-2.21,0-4.13-0.37-5.76-1.1c-1.63-0.74-2.91-1.75-3.84-3.06c-0.93-1.3-1.46-2.81-1.57-4.53h3.05c0.11,1.28,0.53,2.37,1.27,3.25
			c0.74,0.89,1.7,1.56,2.89,2.02c1.19,0.46,2.51,0.69,3.97,0.69c1.62,0,3.06-0.27,4.33-0.82c1.26-0.54,2.26-1.31,2.99-2.29
			c0.72-0.98,1.09-2.12,1.09-3.42c0-1.1-0.29-2.02-0.86-2.77c-0.57-0.75-1.37-1.37-2.39-1.88c-1.02-0.51-2.21-0.96-3.55-1.35
			l-3.89-1.14c-2.55-0.76-4.53-1.82-5.94-3.16c-1.41-1.34-2.11-3.06-2.11-5.14c0-1.75,0.47-3.28,1.41-4.61s2.21-2.37,3.81-3.11
			c1.6-0.75,3.41-1.12,5.41-1.12c2.02,0,3.81,0.37,5.37,1.11s2.79,1.76,3.71,3.06c0.92,1.3,1.41,2.77,1.47,4.42H178.88z"/>
		<path class="st0" d="M198.38,149.04v2.46h-11.64v-2.46H198.38z M190.38,143.2h2.84v23.86c0,1.02,0.17,1.81,0.52,2.39
			s0.8,0.98,1.37,1.22c0.56,0.24,1.16,0.36,1.79,0.36c0.37,0,0.69-0.02,0.95-0.07c0.26-0.05,0.5-0.1,0.7-0.15l0.6,2.56
			c-0.28,0.11-0.61,0.2-1.02,0.29s-0.9,0.13-1.49,0.13c-1.04,0-2.04-0.23-2.99-0.68c-0.96-0.46-1.74-1.13-2.36-2.03
			c-0.61-0.9-0.92-2.02-0.92-3.35V143.2z"/>
		<path class="st0" d="M214.02,173.94c-2.11,0-3.97-0.53-5.58-1.6s-2.88-2.55-3.79-4.44c-0.91-1.89-1.37-4.07-1.37-6.55
			c0-2.5,0.46-4.7,1.37-6.6c0.91-1.9,2.17-3.38,3.79-4.45c1.61-1.06,3.47-1.6,5.58-1.6c2.11,0,3.96,0.53,5.57,1.6
			c1.61,1.07,2.87,2.55,3.79,4.45c0.92,1.9,1.37,4.09,1.37,6.59c0,2.48-0.46,4.66-1.37,6.55s-2.17,3.37-3.79,4.44
			C217.99,173.4,216.13,173.94,214.02,173.94z M214.02,171.35c1.69,0,3.13-0.46,4.3-1.37s2.07-2.12,2.67-3.64
			c0.61-1.51,0.91-3.18,0.91-5s-0.3-3.49-0.91-5.02c-0.61-1.52-1.5-2.75-2.67-3.67s-2.61-1.38-4.3-1.38c-1.68,0-3.12,0.46-4.3,1.38
			c-1.18,0.92-2.07,2.14-2.68,3.67c-0.61,1.52-0.91,3.2-0.91,5.02s0.3,3.49,0.91,5c0.61,1.51,1.5,2.73,2.67,3.64
			C210.89,170.9,212.33,171.35,214.02,171.35z"/>
		<path class="st0" d="M230.96,173.43v-24.39h2.75v3.75h0.21c0.49-1.23,1.34-2.22,2.55-2.98c1.21-0.76,2.58-1.14,4.12-1.14
			c0.23,0,0.49,0.01,0.78,0.02c0.29,0.01,0.52,0.02,0.71,0.03v2.87c-0.13-0.02-0.35-0.05-0.67-0.1c-0.32-0.04-0.66-0.06-1.03-0.06
			c-1.27,0-2.4,0.27-3.39,0.8c-0.99,0.54-1.77,1.27-2.34,2.21c-0.57,0.94-0.86,2.02-0.86,3.22v15.75H230.96z"/>
		<path class="st0" d="M256,173.94c-2.28,0-4.25-0.53-5.91-1.6c-1.66-1.06-2.95-2.54-3.85-4.43c-0.91-1.89-1.36-4.07-1.36-6.53
			c0-2.46,0.45-4.64,1.36-6.55c0.9-1.91,2.16-3.41,3.76-4.49s3.46-1.63,5.57-1.63c1.32,0,2.6,0.24,3.83,0.72
			c1.23,0.48,2.33,1.22,3.31,2.21c0.98,0.99,1.75,2.23,2.33,3.73c0.57,1.5,0.86,3.27,0.86,5.31v1.4h-19.05v-2.49H263
			c0-1.57-0.32-2.98-0.94-4.23c-0.63-1.25-1.5-2.25-2.62-2.98c-1.12-0.73-2.41-1.09-3.87-1.09c-1.55,0-2.91,0.41-4.08,1.24
			c-1.17,0.83-2.09,1.92-2.75,3.27c-0.66,1.36-1,2.84-1.01,4.45v1.49c0,1.94,0.34,3.63,1.01,5.07c0.67,1.44,1.63,2.56,2.87,3.36
			s2.7,1.19,4.4,1.19c1.15,0,2.17-0.18,3.04-0.54c0.87-0.36,1.61-0.84,2.21-1.45c0.6-0.61,1.05-1.28,1.36-2.01l2.68,0.87
			c-0.37,1.03-0.98,1.97-1.82,2.84c-0.84,0.87-1.89,1.56-3.14,2.09C259.08,173.68,257.63,173.94,256,173.94z"/>
	</g>
</g>
</svg>
